HIERARCHY
ROOT Hips
{
     OFFSET 59.03190 97.53520 71.77120
     CHANNELS 6 Xposition Yposition Zposition Zrotation Xrotation Yrotation
     JOINT Spine
     {
          OFFSET -0.00000 11.89050 -0.00000
          CHANNELS 3 Zrotation Xrotation Yrotation
          JOINT Spine1
          {
               OFFSET 0.00000 25.65740 0.12766
               CHANNELS 3 Zrotation Xrotation Yrotation
               JOINT HEad
               {
                    OFFSET 0.00000 8.73416 0.01134
                    CHANNELS 3 Zrotation Xrotation Yrotation
                    End Site
                    {
                         OFFSET -0.29000 12.77420 2.51395
                    }
               }
               JOINT LeftShoulder1
               {
                    OFFSET 8.99000 -0.36225 -0.22000
                    CHANNELS 3 Zrotation Xrotation Yrotation
                    JOINT LeftArm
                    {
                         OFFSET 10.28270 -0.00338 0.32212
                         CHANNELS 3 Zrotation Xrotation Yrotation
                         JOINT LeftForeArm
                         {
                              OFFSET 32.76690 0.09914 -1.42434
                              CHANNELS 3 Zrotation Xrotation Yrotation
                              JOINT LeftHand
                              {
                                   OFFSET 27.56430 0.08536 1.02216
                                   CHANNELS 3 Zrotation Xrotation Yrotation
                                   End Site
                                   {
                                        OFFSET 16.74430 -0.60000 1.50291
                                   }
                              }
                         }
                    }
               }
               JOINT RightShoulder
               {
                    OFFSET -8.99000 -0.36225 -0.22000
                    CHANNELS 3 Zrotation Xrotation Yrotation
                    JOINT RightArm
                    {
                         OFFSET -10.28270 -0.00338 0.32212
                         CHANNELS 3 Zrotation Xrotation Yrotation
                         JOINT RightForeArm
                         {
                              OFFSET -32.89710 0.09914 -1.42434
                              CHANNELS 3 Zrotation Xrotation Yrotation
                              JOINT RightHand
                              {
                                   OFFSET -27.49210 0.08536 1.02216
                                   CHANNELS 3 Zrotation Xrotation Yrotation
                                   End Site
                                   {
                                        OFFSET -16.63120 -0.60000 1.50291
                                   }
                              }
                         }
                    }
               }
          }
     }
     JOINT LeftUpLeg
     {
          OFFSET 8.94580 -8.66707 0.10165
          CHANNELS 3 Zrotation Xrotation Yrotation
          JOINT LeftLeg
          {
               OFFSET -0.00000 -44.42270 1.37270
               CHANNELS 3 Zrotation Xrotation Yrotation
               JOINT LeftFoot
               {
                    OFFSET -0.25355 -42.09240 -1.46059
                    CHANNELS 3 Zrotation Xrotation Yrotation
                    JOINT LeftToes
                    {
                         OFFSET -0.04000 -4.41509 8.49910
                         CHANNELS 3 Zrotation Xrotation Yrotation
                         End Site
                         {
                              OFFSET 0.08000 -0.04745 9.77979
                         }
                    }
               }
          }
     }
     JOINT RightUpLeg
     {
          OFFSET -8.94580 -8.66707 0.10165
          CHANNELS 3 Zrotation Xrotation Yrotation
          JOINT RightLeg
          {
               OFFSET -0.00000 -44.42270 1.37270
               CHANNELS 3 Zrotation Xrotation Yrotation
               JOINT RightFoot
               {
                    OFFSET 0.25355 -42.09240 -1.46059
                    CHANNELS 3 Zrotation Xrotation Yrotation
                    JOINT RightToes
                    {
                         OFFSET 0.04000 -4.41509 8.49910
                         CHANNELS 3 Zrotation Xrotation Yrotation
                         End Site
                         {
                              OFFSET -0.08000 -0.13745 9.77979
                         }
                    }
               }
          }
     }
}
MOTION
Frames: 12
Frame Time: 0.01667
20.77400 97.87830 68.36490 -10.20000 -0.80393 -94.50100 3.17830 9.17792 1.44863 12.35340 17.84520 1.38103 6.52589 -14.75380 31.76890 -0.00000 -0.00000 0.00000 178.22600 -64.64070 -171.73700 -60.00130 58.59570 -65.91510 27.50120 3.09694 -23.84440 -9.08092 -0.14289 6.07605 64.29230 0.47454 97.06590 38.66150 12.01920 60.95860 -8.72498 7.73403 26.29830 15.26650 -25.41950 -18.02580 -34.45310 48.00490 52.28750 -12.89420 -4.17082 0.40523 0.55087 2.52291 -4.83493 -19.38590 -10.48880 -33.09000 -7.79506 31.18000 3.02270 11.34880 -11.03620 0.14559 1.39850 -16.36900 1.93880 
22.23610 98.09330 69.12730 -8.13258 -0.25435 -98.08260 2.49158 8.72868 1.93649 10.97600 17.16720 2.23355 7.04494 -16.88420 33.85980 -0.00000 -0.00000 0.00000 174.92400 -61.73420 -174.77699 -63.06310 58.13380 -62.28640 27.42850 3.12533 -23.80850 -11.03540 -0.29528 6.40860 65.61210 0.01017 98.07690 39.42160 11.45360 60.56150 -8.87812 7.67456 26.53130 16.93340 -22.49120 -20.87350 -35.30560 46.05390 52.84050 -14.85490 -4.56547 0.41685 -0.01806 4.11972 -3.57288 -20.27560 -12.96500 -36.08590 -7.15701 31.51730 1.00792 14.09250 -12.71230 0.42845 0.52344 -7.69776 2.58427 
23.52980 97.99130 69.91490 -6.19012 0.53058 -100.92100 2.52313 8.18057 2.18689 10.00720 16.23690 2.78847 7.28134 -18.41380 35.26880 -0.00000 -0.00000 0.00000 173.92900 -59.70640 -175.53400 -64.10120 57.65590 -60.30370 27.38910 3.25705 -23.32730 -12.76050 -0.42134 6.43640 66.74870 -0.41007 99.16140 39.94740 10.55790 59.86160 -9.00582 7.61989 26.78450 18.24240 -19.15030 -23.66430 -34.71900 43.53210 52.75760 -17.41540 -6.29632 0.23214 -0.62650 5.40993 -2.05699 -21.30280 -15.15390 -38.21270 -6.75832 34.09460 -0.26501 15.48050 -14.16440 0.68401 -0.22631 1.85974 1.43621 
24.73680 97.57020 70.70020 -4.48295 1.40761 -102.71300 3.16491 7.59210 2.16352 9.43183 15.12370 2.94513 6.98424 -19.27610 35.86650 -0.00000 -0.00000 0.00000 174.87000 -58.89000 -174.22000 -63.54950 57.16190 -59.79630 27.26250 3.46141 -22.64180 -14.08260 -0.47785 5.94715 67.50530 -0.54715 100.27700 40.19370 9.35088 58.89900 -9.07459 7.58044 27.04570 19.10240 -15.78700 -26.01480 -32.70130 40.61680 52.30630 -19.46500 -9.16064 -0.22060 -0.77133 4.80327 -0.98998 -22.65980 -16.81750 -39.06070 -6.72018 38.53400 -0.48886 15.02100 -14.65980 0.72083 -0.33985 9.18167 -0.88911 
25.96560 96.87900 71.41290 -3.16066 2.18778 -103.26300 4.03330 6.98039 1.88112 9.13116 13.91200 2.68539 6.05518 -19.55820 35.74070 -0.00000 -0.00000 0.00000 177.58501 -59.28560 -170.89700 -61.79740 56.67570 -60.59540 27.01000 3.70356 -21.91950 -14.87090 -0.44088 4.90326 67.74130 -0.34356 101.34100 40.31230 7.89896 57.77240 -9.05711 7.56458 27.31200 19.54540 -12.97320 -27.56430 -29.79810 37.64050 51.53370 -19.46680 -12.54640 -0.79011 -0.14205 1.47240 -0.78644 -24.28970 -17.48250 -38.34170 -6.65717 43.84020 -0.49271 13.22990 -13.62860 0.49196 -0.01215 12.14590 -3.01121 
27.33520 95.98840 71.93920 -2.36241 2.66081 -102.58500 4.54538 6.35075 1.41854 8.89596 12.71640 2.09350 4.61079 -19.40540 35.17360 -0.00000 -0.00000 0.00000 -177.96500 -60.54760 -165.61501 -59.08290 56.29890 -62.57750 26.69090 3.95046 -21.22570 -15.07920 -0.32442 3.45014 67.47880 0.11635 102.25600 40.46640 6.40628 56.65270 -8.93764 7.57842 27.57070 19.59480 -11.40690 -28.02000 -26.78300 35.47020 50.10880 -17.02080 -15.69320 -1.14556 0.81880 -3.07890 -0.90098 -26.00200 -16.74450 -35.99390 -5.84775 49.05150 -1.59508 11.42370 -11.18120 0.16163 0.25817 10.64400 -3.86182 
28.94870 94.98980 72.18030 -2.14000 2.67272 -100.96400 4.26493 5.79561 0.90802 8.48556 11.73870 1.35521 2.94316 -18.96670 34.47100 -0.00000 -0.00000 0.00000 -171.89799 -62.06940 -158.64799 -55.52890 56.14700 -65.59760 26.41280 4.17949 -20.54600 -14.70360 -0.17035 1.84473 66.88430 0.69701 102.93400 40.65570 5.21942 55.76380 -8.71669 7.62553 27.78170 19.21150 -11.59680 -27.25110 -24.14760 35.18740 47.73420 -13.59840 -17.62800 -1.12357 1.64130 -6.85853 -1.12582 -27.53660 -14.49020 -32.28130 -3.77250 53.39170 -4.52271 10.67920 -7.97508 -0.14410 0.34032 6.09001 -3.32950 
30.82710 93.96480 72.11740 -2.41743 2.16463 -98.91850 3.16045 5.49486 0.51028 7.69731 11.24000 0.72872 1.42932 -18.43440 33.79220 -0.00000 -0.00000 0.00000 -164.82700 -63.21050 -150.87100 -51.31560 56.23130 -69.33340 26.25110 4.38130 -19.85290 -13.79960 -0.02756 0.36871 66.20770 1.27255 103.31200 40.73740 4.68828 55.31280 -8.44909 7.69548 27.87490 18.43020 -13.41820 -25.53650 -22.08080 36.96200 44.66150 -11.10970 -17.68390 -0.90490 2.38059 -9.83410 -2.10583 -28.62440 -10.97080 -27.79600 -0.91649 56.25500 -8.37171 11.26270 -4.70103 -0.44548 0.47265 -0.06899 -2.28305 
32.84820 92.94900 71.82610 -2.98164 1.18934 -97.05700 1.57667 5.56071 0.37720 6.45389 11.35780 0.50061 0.39751 -18.02770 33.10720 -0.00000 -0.00000 0.00000 -158.05701 -63.63160 -143.82001 -46.94730 56.42350 -73.09100 26.20630 4.54963 -19.18210 -12.57020 0.07017 -0.75287 65.71800 1.76160 103.35400 40.58890 4.94524 55.38580 -8.24606 7.76004 27.78670 17.53390 -16.09220 -23.58490 -20.95780 39.63920 41.83320 -10.07380 -16.15720 -0.68138 3.12158 -12.63960 -3.97526 -29.11890 -6.67342 -23.23130 1.34889 57.31660 -11.12140 13.10740 -2.07384 -0.77836 0.80602 -6.79726 -1.80688 
34.81400 91.95740 71.40630 -3.51481 -0.11292 -95.91670 -0.12449 5.90974 0.62289 4.81959 11.92970 0.91586 -0.02900 -17.82530 32.32620 -0.00000 -0.00000 0.00000 -152.85001 -63.49450 -138.82001 -43.26710 56.53030 -75.90330 26.20220 4.67823 -18.63940 -11.37550 0.11694 -1.39498 65.59440 2.14187 103.05500 40.25670 5.74574 55.86160 -8.20582 7.79031 27.51920 16.89950 -18.76950 -21.99270 -21.33030 41.84430 40.34940 -9.64814 -14.05830 -0.47944 3.74123 -15.24220 -5.89283 -29.12050 -2.18268 -19.05710 2.25934 56.53190 -11.78410 15.99820 -0.94903 -1.07197 1.21215 -13.25190 -2.24927 
36.61550 91.03070 70.91960 -3.72480 -1.53944 -95.79280 -1.78043 6.32311 1.27376 2.95742 12.56180 2.06094 -0.00123 -17.66650 31.47440 -0.00000 -0.00000 0.00000 -149.49600 -63.28170 -136.01801 -41.01630 56.33770 -77.05240 26.08070 4.77714 -18.32700 -10.57630 0.12695 -1.54254 65.81840 2.45541 102.47500 39.98080 6.52150 56.39560 -8.32382 7.78162 27.17000 16.70400 -21.03380 -20.88320 -23.09140 42.98790 40.57040 -9.12613 -12.27940 -0.31521 4.13220 -17.17380 -7.03249 -28.87920 1.86851 -15.51740 2.21522 54.07580 -11.19170 19.27700 -1.84866 -1.12233 1.53686 -19.12240 -3.01893 
38.30270 90.21820 70.39080 -3.50764 -2.89881 -96.64730 -3.37378 6.62075 2.24208 1.08770 12.91390 3.77838 0.16447 -17.36500 30.74560 -0.00000 -0.00000 0.00000 -147.63800 -63.41870 -134.78999 -40.36440 55.67050 -76.53380 25.67250 4.87337 -18.28090 -10.35970 0.11550 -1.28876 66.18290 2.79404 101.79800 40.02590 6.66674 56.57480 -8.44525 7.76758 26.89190 16.81400 -22.89870 -20.17910 -25.28990 43.26870 42.00950 -8.67824 -11.07570 -0.21109 4.31234 -18.19480 -7.32699 -28.58610 4.89558 -12.89970 1.69893 50.48490 -10.45050 22.05920 -4.53769 -0.76232 1.81270 -24.52260 -3.18107 
